<svg t="1707191009134" class="icon" viewBox="0 0 1024 1024" version="1.1"
  xmlns="http://www.w3.org/2000/svg" p-id="5211" xmlns:xlink="http://www.w3.org/1999/xlink"
  width="200" height="200">
  <path
    d="M896 272a144 144 0 1 0-176.96 140.192l0.96 0.192V416a64 64 0 0 1-64 64h-288a64 64 0 0 1-64-64v-3.616C368.608 397.28 416 340.16 416 272a144 144 0 1 0-176.96 140.192l0.96 0.192V416a128.416 128.416 0 0 0 127.968 128H480v67.616c-64.608 15.104-112 72.224-112 140.384a144 144 0 1 0 176.96-140.192l-0.96-0.192V544h112a128.416 128.416 0 0 0 128-127.968v-3.616A144.64 144.64 0 0 0 896 272.032V272z m-704 0A80 80 0 1 1 272 352 80.384 80.384 0 0 1 192 272.032V272z m400 480A80 80 0 1 1 512 672a80.384 80.384 0 0 1 80 79.968v0.032z m160-400A80 80 0 1 1 832 272a80.384 80.384 0 0 1-79.968 80H752z"
    p-id="5212"></path>
</svg>
