<svg t="1707191184419" class="icon" viewBox="0 0 1024 1024" version="1.1"
  xmlns="http://www.w3.org/2000/svg" p-id="7045" xmlns:xlink="http://www.w3.org/1999/xlink"
  width="200" height="200">
  <path
    d="M712.64 736h-267.36A192 192 0 1 1 102.4 588.736 32 32 0 1 1 153.6 627.2 128 128 0 1 0 384 704a32 32 0 0 1 32-32h296.64a64 64 0 1 1 0 64zM256 768a64 64 0 0 0 56.32-94.464l143.072-232.544a32 32 0 0 0-10.464-44 128 128 0 1 1 184.384-160.256 32 32 0 1 0 58.688-25.6 192 192 0 1 0-302.464 221.344L257.76 640H256a64 64 0 1 0 0 128z m512-256c-24.64 0-49.12 4.736-72 13.952L568.32 318.4A64 64 0 1 0 512 352h1.76l143.136 232.576a32 32 0 0 0 44 10.432A128.032 128.032 0 1 1 768 832a32 32 0 0 0 0 64 192 192 0 1 0 0-384z"
    p-id="7046"></path>
</svg>
