<?xml version="1.0" standalone="no"?><!DOCTYPE svg PUBLIC "-//W3C//DTD SVG 1.1//EN" "http://www.w3.org/Graphics/SVG/1.1/DTD/svg11.dtd"><svg t="1693552628887" class="icon" viewBox="0 0 1024 1024" version="1.1" xmlns="http://www.w3.org/2000/svg" p-id="1467" xmlns:xlink="http://www.w3.org/1999/xlink" width="200" height="200"><path d="M790.1 440.89v-97.78c-3.08-47.41-43.08-83-92.31-83h-92.31v-5.93C602.41 174.22 534.71 112 451.64 112c-86.15 0-153.85 65.19-153.85 148.15h-98.46c-49.23 3-86.15 41.48-86.15 88.89v148.15h67.69c49.23 3 86.15 41.48 86.15 88.89 0 50.37-40 88.89-92.31 88.89h-61.54V829c3.08 47.41 43.08 83 92.31 83h498.46c49.23-3 86.15-41.48 86.15-88.89v-91.85c70.77-14.81 123.08-74.07 123.08-145.19S860.87 455.7 790.1 440.89zM759.33 675h-30.77v151.07c-3.08 14.81-15.38 26.67-30.77 26.67H202.41c-15.38-3-27.69-14.81-27.69-29.63v-88.89h6.15c83.08-3 147.69-68.15 147.69-148.15 0-83-67.69-148.15-153.85-148.15v-91.85c3.08-14.81 15.38-26.67 30.77-26.67h153.85v-65.18c3.08-47.41 43.08-83 92.31-83 52.31 0 92.31 38.52 92.31 88.89v59.26h156.92c15.38 3 27.69 14.81 27.69 29.63v148.19h36.92c49.23 3 86.15 41.48 86.15 88.89 0.01 50.36-39.99 88.92-92.3 88.92z" p-id="1468"></path></svg>