<svg width="230" height="230" xmlns="http://www.w3.org/2000/svg"
  xmlns:undefined="http://www.w3.org/2000/svg" version="1.1">

  <g>
    <title>Layer 1</title>
    <g transform="rotate(-0.0444597 115 115.25)" stroke="null" id="svg_1" text-anchor="none"
      font-size="none" font-weight="none" font-family="none" stroke-dashoffset="0"
      stroke-miterlimit="10" fill-rule="none" fill="none">
      <g stroke="null" id="svg_2">
        <g stroke="null" id="svg_3" xmlns="http://www.w3.org/2000/svg">
          <path stroke="null" id="svg_4" fill="#3eb1c8"
            d="m193.28858,62.03873c-3.21465,28.48028 -27.97915,50.62984 -58.04601,50.62984c-32.25387,0 -58.39869,-25.48682 -58.39869,-56.92499c0,-27.0438 19.34665,-49.68538 45.28675,-55.48654l-0.12769,0.02569c-37.2846,1.14602 -67.14875,30.97581 -67.14875,67.6046c0,37.35195 31.06002,67.63029 69.37631,67.63029c38.32235,0 69.38645,-30.27832 69.38645,-67.63029c0,-2.08257 -0.09932,-4.14143 -0.28579,-6.17462l-0.04259,0.32602z" />
          <path stroke="null" id="svg_5" fill="#3eb1c8"
            d="m73.03537,12.98168l-0.00608,0.00395l0.00405,-0.00395l0.00203,0z" />
          <path stroke="null" id="svg_6" fill="#101820"
            d="m23.68472,89.43622c0.00203,-33.68671 20.15334,-64.11124 49.34457,-76.45059c-17.24475,12.33737 -28.194,35.05401 -28.194,58.81985c0,42.90021 35.67727,77.10065 79.68709,77.10065c44.01183,0 79.68912,-34.72403 79.68912,-77.62427c0,-10.1639 -2.00053,-19.84174 -5.64286,-28.73714c19.11964,19.93263 30.8249,46.71959 30.8249,76.16013c0,61.58608 -51.21741,111.53818 -114.39347,111.53818c-63.17606,0 -114.39347,-49.88098 -114.39347,-111.46508c0,-18.74712 4.74697,-36.31067 13.12815,-51.81735l0.00811,0.14226c-0.41552,3.00926 -0.63037,6.14893 -0.63037,9.26883c0,17.09132 6.41713,35.29902 17.02787,45.17049c-4.16322,-9.86752 -6.45565,-20.74275 -6.45565,-32.106l0,0.00002z" />
          <path stroke="null" id="svg_7" fill="#3eb1c8"
            d="m198.52808,42.50128c0.01216,0.01383 0.02635,0.02964 0.04054,0.04347l-0.02838,-0.07113l-0.01216,0.02766z" />
          <path stroke="null" id="svg_8" fill="#3eb1c8"
            d="m184.99455,45.06003l-0.00405,0.01383l-0.00203,-0.01383l0.00608,0z" />
          <path stroke="null" id="svg_9" fill="#3eb1c8"
            d="m186.78836,56.86391c0,-4.4062 -0.62429,-6.86419 -1.79784,-11.79004c-6.65224,22.20093 -29.5277,41.57243 -56.71838,41.57243c-12.10456,0 -23.34974,-4.0703 -32.69168,-10.19749c7.79744,15.58176 24.20307,26.3325 43.18487,26.3325c26.52183,0 48.02305,-20.06699 48.02305,-45.91738l-0.00002,-0.00002z" />
          <path stroke="null" id="svg_10" fill="#3eb1c8"
            d="m95.58043,76.44878c-0.09729,-0.19561 -0.19256,-0.39123 -0.28782,-0.58684l0.17837,0.51571c0.03648,0.02371 0.07297,0.04742 0.10945,0.07113z" />
        </g>
      </g>
    </g>
  </g>
</svg>